<svg viewBox="0 0 16 16" xmlns="http://www.w3.org/2000/svg">
    <path d="M7.89896 12.5237H8.29229C8.57229 12.5237 8.83596 12.393 9.00529 12.17L11.5003 8.88769L13.9953 12.17C14.1646 12.3927 14.4283 12.5237 14.7083 12.5237H15.1016L11.9186 8.33702L14.959 4.33702H14.5656C14.2856 4.33702 14.022 4.46769 13.8526 4.69069L11.5 7.78602L9.14696 4.69035C8.97763 4.46769 8.71396 4.33702 8.43396 4.33702H8.04063L11.081 8.33702L7.89896 12.5237Z"/>
    <path d="M7.99996 8.67035V7.67035C7.99996 5.44535 6.01829 3.68335 3.72363 4.05302C1.93729 4.34069 0.666626 5.95602 0.666626 7.76502V8.71769C0.666626 10.902 2.25896 12.6464 4.28929 12.6704C5.98663 12.6904 7.41896 11.5557 7.85829 10.004H7.51563C7.30896 10.004 7.12163 10.1224 7.03196 10.3084C6.45229 11.5067 5.10229 12.2624 3.62263 11.9224C2.25863 11.6087 1.33329 10.3307 1.33329 8.93135V8.67035H7.99996ZM1.33329 7.90702C1.33329 6.33769 2.26796 5.05469 3.64129 4.74769C5.59929 4.31035 7.33329 5.78769 7.33329 7.67035V8.00369H1.33329V7.90702Z"/>
</svg>